<?xml version="1.0" encoding="UTF-8" standalone="no"?><!DOCTYPE svg PUBLIC "-//W3C//DTD SVG 1.1//EN" "http://www.w3.org/Graphics/SVG/1.1/DTD/svg11.dtd"><svg width="100%" height="100%" viewBox="0 0 100 100" version="1.1" xmlns="http://www.w3.org/2000/svg" xmlns:xlink="http://www.w3.org/1999/xlink" xml:space="preserve" xmlns:serif="http://www.serif.com/" style="fill-rule:evenodd;clip-rule:evenodd;stroke-linejoin:round;stroke-miterlimit:2;"><path d="M50,2c-2.665,0 -5.15,1.254 -7.313,3.406c-2.162,2.153 -4.05,5.203 -5.625,8.907c-0.509,1.199 -0.964,2.508 -1.406,3.843c-1.384,-0.286 -2.731,-0.559 -4.031,-0.718c-1.997,-0.245 -3.865,-0.348 -5.625,-0.282c-1.76,0.067 -3.402,0.321 -4.875,0.719c-2.946,0.797 -5.292,2.317 -6.625,4.625c-1.333,2.308 -1.47,5.082 -0.688,8.031c0.783,2.95 2.455,6.098 4.875,9.313c0.784,1.041 1.66,2.106 2.594,3.156c-0.934,1.05 -1.81,2.084 -2.594,3.125c-2.42,3.215 -4.092,6.363 -4.875,9.313c-0.782,2.949 -0.645,5.754 0.688,8.062c1.333,2.308 3.679,3.828 6.625,4.625c2.946,0.797 6.506,0.895 10.5,0.406c1.299,-0.159 2.648,-0.401 4.031,-0.687c0.442,1.333 0.897,2.613 1.406,3.812c1.575,3.704 3.463,6.754 5.625,8.907c2.163,2.152 4.648,3.437 7.313,3.437c2.665,0 5.15,-1.285 7.312,-3.437c2.163,-2.153 4.051,-5.203 5.625,-8.907c0.51,-1.199 0.965,-2.479 1.407,-3.812c1.383,0.286 2.732,0.528 4.031,0.687c3.994,0.489 7.554,0.391 10.5,-0.406c2.946,-0.797 5.292,-2.317 6.625,-4.625c1.333,-2.308 1.47,-5.113 0.687,-8.062c-0.782,-2.95 -2.454,-6.098 -4.875,-9.313c-0.783,-1.041 -1.659,-2.075 -2.593,-3.125c0.934,-1.05 1.81,-2.115 2.593,-3.156c2.421,-3.215 4.093,-6.363 4.875,-9.313c0.783,-2.949 0.646,-5.723 -0.687,-8.031c-1.333,-2.308 -3.679,-3.828 -6.625,-4.625c-1.473,-0.398 -3.115,-0.652 -4.875,-0.719c-1.76,-0.066 -3.628,0.037 -5.625,0.282c-1.3,0.159 -2.647,0.432 -4.031,0.718c-0.442,-1.335 -0.897,-2.644 -1.407,-3.843c-1.574,-3.704 -3.462,-6.754 -5.625,-8.907c-2.162,-2.152 -4.647,-3.406 -7.312,-3.406Zm0,2c2.029,0 4.002,0.948 5.906,2.844c1.905,1.895 3.685,4.715 5.188,8.25c0.46,1.084 0.875,2.258 1.281,3.469c-3.914,0.954 -8.097,2.425 -12.375,4.312c-4.278,-1.887 -8.461,-3.358 -12.375,-4.312c0.406,-1.211 0.82,-2.385 1.281,-3.469c1.503,-3.535 3.283,-6.355 5.188,-8.25c1.904,-1.896 3.877,-2.844 5.906,-2.844Zm-23.938,15.188c1.635,-0.063 3.438,0.016 5.344,0.25c1.165,0.142 2.379,0.373 3.625,0.625c-1.135,3.869 -1.96,8.22 -2.469,12.875c-3.782,2.769 -7.15,5.673 -9.937,8.593c-0.844,-0.954 -1.637,-1.936 -2.344,-2.875c-2.31,-3.068 -3.842,-6.027 -4.531,-8.625c-0.689,-2.597 -0.546,-4.774 0.469,-6.531c1.014,-1.757 2.843,-3.017 5.437,-3.719c1.297,-0.351 2.772,-0.531 4.406,-0.593Zm46.625,0c0.429,-0.002 0.842,-0.016 1.25,0c1.635,0.062 3.11,0.242 4.407,0.593c2.594,0.702 4.423,1.962 5.437,3.719c1.015,1.757 1.158,3.934 0.469,6.531c-0.689,2.598 -2.221,5.557 -4.531,8.625c-0.707,0.939 -1.5,1.921 -2.344,2.875c-2.787,-2.92 -6.155,-5.824 -9.938,-8.593c-0.508,-4.655 -1.333,-9.006 -2.468,-12.875c1.246,-0.252 2.46,-0.483 3.625,-0.625c1.429,-0.175 2.807,-0.244 4.093,-0.25Zm-35.687,1.312c3.342,0.804 6.918,1.943 10.594,3.469c-2.191,1.044 -4.388,2.164 -6.594,3.437c-2.192,1.266 -4.262,2.604 -6.25,3.969c0.515,-3.927 1.282,-7.592 2.25,-10.875Zm26,0c0.968,3.283 1.735,6.948 2.25,10.875c-1.988,-1.365 -4.058,-2.703 -6.25,-3.969c-2.206,-1.273 -4.403,-2.393 -6.594,-3.437c3.676,-1.526 7.252,-2.665 10.594,-3.469Zm-13,4.531c2.645,1.196 5.317,2.545 8,4.094c2.68,1.547 5.203,3.215 7.562,4.906c0.287,2.889 0.438,5.875 0.438,8.969c0,3.082 -0.153,6.094 -0.438,8.969c-2.359,1.691 -4.882,3.328 -7.562,4.875c-2.683,1.549 -5.355,2.926 -8,4.125c-2.645,-1.199 -5.317,-2.576 -8,-4.125c-2.68,-1.547 -5.203,-3.184 -7.563,-4.875c-0.284,-2.875 -0.437,-5.887 -0.437,-8.969c0,-3.094 0.151,-6.08 0.437,-8.969c2.36,-1.691 4.883,-3.359 7.563,-4.906c2.683,-1.549 5.355,-2.898 8,-4.094Zm-17.688,10.563c-0.19,2.412 -0.312,4.866 -0.312,7.406c0,2.528 0.093,5.007 0.281,7.406c-3.159,-2.418 -5.945,-4.916 -8.312,-7.406c2.372,-2.495 5.176,-4.984 8.343,-7.406Zm35.375,0c3.168,2.422 5.972,4.911 8.344,7.406c-2.367,2.49 -5.153,4.988 -8.312,7.406c0.188,-2.399 0.281,-4.878 0.281,-7.406c0,-2.54 -0.122,-4.994 -0.313,-7.406Zm-45.062,8.875c2.789,2.922 6.151,5.822 9.937,8.594c0.51,4.671 1.328,9.026 2.469,12.906c-1.246,0.253 -2.46,0.451 -3.625,0.594c-3.812,0.466 -7.156,0.326 -9.75,-0.375c-2.594,-0.702 -4.423,-1.931 -5.437,-3.688c-1.015,-1.757 -1.158,-3.965 -0.469,-6.562c0.689,-2.598 2.221,-5.557 4.531,-8.625c0.707,-0.939 1.5,-1.89 2.344,-2.844Zm54.75,0c0.844,0.954 1.637,1.905 2.344,2.844c2.31,3.068 3.842,6.027 4.531,8.625c0.689,2.597 0.546,4.805 -0.469,6.562c-1.014,1.757 -2.843,2.986 -5.437,3.688c-2.594,0.701 -5.938,0.841 -9.75,0.375c-1.165,-0.143 -2.379,-0.341 -3.625,-0.594c1.141,-3.88 1.959,-8.235 2.468,-12.906c3.787,-2.772 7.149,-5.672 9.938,-8.594Zm-42.656,10.125c1.995,1.371 4.08,2.698 6.281,3.969c2.206,1.273 4.403,2.424 6.594,3.468c-3.665,1.527 -7.229,2.693 -10.563,3.5c-0.979,-3.307 -1.795,-6.975 -2.312,-10.937Zm30.562,0c-0.517,3.962 -1.333,7.63 -2.312,10.937c-3.334,-0.807 -6.898,-1.973 -10.563,-3.5c2.191,-1.044 4.388,-2.195 6.594,-3.468c2.201,-1.271 4.286,-2.598 6.281,-3.969Zm-15.281,8.531c4.278,1.887 8.461,3.327 12.375,4.281c-0.407,1.212 -0.82,2.383 -1.281,3.469c-1.503,3.535 -3.283,6.354 -5.188,8.25c-1.904,1.896 -3.877,2.875 -5.906,2.875c-2.029,0 -4.002,-0.979 -5.906,-2.875c-1.905,-1.896 -3.685,-4.715 -5.188,-8.25c-0.461,-1.086 -0.874,-2.257 -1.281,-3.469c3.914,-0.954 8.097,-2.394 12.375,-4.281Z" style="fill:#1d4875;fill-rule:nonzero;"/><text x="41.34px" y="50.121px" style="font-family:'ArialMT', 'Arial', sans-serif;font-size:24px;fill:#0aae10;">H</text><text x="32.187px" y="97.351px" style="font-family:'ArialMT', 'Arial', sans-serif;font-size:16px;">HBM</text></svg>